<?xml version="1.0" encoding="UTF-8" standalone="no"?>
<!DOCTYPE svg PUBLIC "-//W3C//DTD SVG 1.1//EN"
 "http://www.w3.org/Graphics/SVG/1.1/DTD/svg11.dtd">
<!-- Generated by graphviz version 3.0.0 (20220226.1711)
 -->
<!-- Title: classes Pages: 1 -->
<svg width="1400pt" height="1137pt"
 viewBox="0.00 0.00 1399.50 1136.80" xmlns="http://www.w3.org/2000/svg" xmlns:xlink="http://www.w3.org/1999/xlink">
<g id="graph0" class="graph" transform="scale(1 1) rotate(0) translate(4 1132.8)">
<title>classes</title>
<polygon fill="white" stroke="transparent" points="-4,4 -4,-1132.8 1395.5,-1132.8 1395.5,4 -4,4"/>
<!-- np_jobs.queues.sqlite_isilon.codeocean_upload_queue.CodeOceanUploadQueue -->
<g id="node1" class="node">
<title>np_jobs.queues.sqlite_isilon.codeocean_upload_queue.CodeOceanUploadQueue</title>
<polygon fill="none" stroke="black" points="0,-430.3 0,-499.3 161,-499.3 161,-430.3 0,-430.3"/>
<text text-anchor="start" x="8" y="-484.1" font-family="Times New Roman,serif" font-size="14.00">CodeOceanUploadQueue</text>
<polyline fill="none" stroke="black" points="0,-476.3 161,-476.3 "/>
<text text-anchor="start" x="36.5" y="-461.1" font-family="Times New Roman,serif" font-size="14.00">table_name : str</text>
<polyline fill="none" stroke="black" points="0,-453.3 161,-453.3 "/>
<text text-anchor="start" x="78.5" y="-438.1" font-family="Times New Roman,serif" font-size="14.00"> </text>
</g>
<!-- np_jobs.queues.sqlite_isilon.base.SqliteIsilonJobQueue -->
<g id="node11" class="node">
<title>np_jobs.queues.sqlite_isilon.base.SqliteIsilonJobQueue</title>
<polygon fill="none" stroke="black" points="288,-582.3 288,-1128.3 575,-1128.3 575,-582.3 288,-582.3"/>
<text text-anchor="start" x="372" y="-1113.1" font-family="Times New Roman,serif" font-size="14.00">SqliteIsilonJobQueue</text>
<polyline fill="none" stroke="black" points="288,-1105.3 575,-1105.3 "/>
<text text-anchor="start" x="339.5" y="-1090.1" font-family="Times New Roman,serif" font-size="14.00">column_definitions : dict[str, str]</text>
<text text-anchor="start" x="339.5" y="-1075.1" font-family="Times New Roman,serif" font-size="14.00">db</text>
<text text-anchor="start" x="339.5" y="-1060.1" font-family="Times New Roman,serif" font-size="14.00">db</text>
<text text-anchor="start" x="339.5" y="-1045.1" font-family="Times New Roman,serif" font-size="14.00">job_type : Type[Job]</text>
<text text-anchor="start" x="339.5" y="-1030.1" font-family="Times New Roman,serif" font-size="14.00">sqlite_db_path : str | pathlib.Path</text>
<text text-anchor="start" x="339.5" y="-1015.1" font-family="Times New Roman,serif" font-size="14.00">table_name : str</text>
<polyline fill="none" stroke="black" points="288,-1007.3 575,-1007.3 "/>
<text text-anchor="start" x="304.5" y="-992.1" font-family="Times New Roman,serif" font-size="14.00">add_or_update(session_or_job: SessionArgs</text>
<polyline fill="none" stroke="black" points="288,-984.3 575,-984.3 "/>
<text text-anchor="start" x="296" y="-969.1" font-family="Times New Roman,serif" font-size="14.00">Job): None</text>
<text text-anchor="start" x="296" y="-954.1" font-family="Times New Roman,serif" font-size="14.00">cursor(): Generator[sqlite3.Cursor, None, None]</text>
<text text-anchor="start" x="296" y="-939.1" font-family="Times New Roman,serif" font-size="14.00">from_job(job: Job): tuple[JobArgs, ...]</text>
<text text-anchor="start" x="320" y="-924.1" font-family="Times New Roman,serif" font-size="14.00">is_started(session_or_job: SessionArgs</text>
<polyline fill="none" stroke="black" points="288,-916.3 575,-916.3 "/>
<text text-anchor="start" x="397" y="-901.1" font-family="Times New Roman,serif" font-size="14.00">Job): bool</text>
<text text-anchor="start" x="397" y="-886.1" font-family="Times New Roman,serif" font-size="14.00">next(): JobT</text>
<polyline fill="none" stroke="black" points="288,-878.3 575,-878.3 "/>
<text text-anchor="start" x="315.5" y="-863.1" font-family="Times New Roman,serif" font-size="14.00">None</text>
<text text-anchor="start" x="315.5" y="-848.1" font-family="Times New Roman,serif" font-size="14.00">set_errored(session_or_job: SessionArgs</text>
<polyline fill="none" stroke="black" points="288,-840.3 575,-840.3 "/>
<text text-anchor="start" x="393.5" y="-825.1" font-family="Times New Roman,serif" font-size="14.00">Job, error: str</text>
<polyline fill="none" stroke="black" points="288,-817.3 575,-817.3 "/>
<text text-anchor="start" x="314" y="-802.1" font-family="Times New Roman,serif" font-size="14.00">Exception): None</text>
<text text-anchor="start" x="314" y="-787.1" font-family="Times New Roman,serif" font-size="14.00">set_finished(session_or_job: SessionArgs</text>
<polyline fill="none" stroke="black" points="288,-779.3 575,-779.3 "/>
<text text-anchor="start" x="315.5" y="-764.1" font-family="Times New Roman,serif" font-size="14.00">Job): None</text>
<text text-anchor="start" x="315.5" y="-749.1" font-family="Times New Roman,serif" font-size="14.00">set_queued(session_or_job: SessionArgs</text>
<polyline fill="none" stroke="black" points="288,-741.3 575,-741.3 "/>
<text text-anchor="start" x="317" y="-726.1" font-family="Times New Roman,serif" font-size="14.00">Job): None</text>
<text text-anchor="start" x="317" y="-711.1" font-family="Times New Roman,serif" font-size="14.00">set_started(session_or_job: SessionArgs</text>
<polyline fill="none" stroke="black" points="288,-703.3 575,-703.3 "/>
<text text-anchor="start" x="328.5" y="-688.1" font-family="Times New Roman,serif" font-size="14.00">Job): None</text>
<text text-anchor="start" x="328.5" y="-673.1" font-family="Times New Roman,serif" font-size="14.00">setup_db_connection(): None</text>
<text text-anchor="start" x="328.5" y="-658.1" font-family="Times New Roman,serif" font-size="14.00">setup_job_table(): None</text>
<text text-anchor="start" x="328.5" y="-643.1" font-family="Times New Roman,serif" font-size="14.00">to_job(): JobT</text>
<text text-anchor="start" x="328.5" y="-628.1" font-family="Times New Roman,serif" font-size="14.00">update(session_or_job: SessionArgs</text>
<polyline fill="none" stroke="black" points="288,-620.3 575,-620.3 "/>
<text text-anchor="start" x="358" y="-605.1" font-family="Times New Roman,serif" font-size="14.00">Job): None</text>
<text text-anchor="start" x="358" y="-590.1" font-family="Times New Roman,serif" font-size="14.00">validate_attributes(): None</text>
</g>
<!-- np_jobs.queues.sqlite_isilon.codeocean_upload_queue.CodeOceanUploadQueue&#45;&gt;np_jobs.queues.sqlite_isilon.base.SqliteIsilonJobQueue -->
<g id="edge2" class="edge">
<title>np_jobs.queues.sqlite_isilon.codeocean_upload_queue.CodeOceanUploadQueue&#45;&gt;np_jobs.queues.sqlite_isilon.base.SqliteIsilonJobQueue</title>
<path fill="none" stroke="black" d="M111.03,-499.6C149.17,-541.81 217.17,-617.07 280.74,-687.44"/>
<polygon fill="none" stroke="black" points="278.37,-690.03 287.67,-695.11 283.57,-685.34 278.37,-690.03"/>
</g>
<!-- np_jobs.queues.sqlite_isilon.datajoint_upload_queue.DataJointUploadQueue -->
<g id="node2" class="node">
<title>np_jobs.queues.sqlite_isilon.datajoint_upload_queue.DataJointUploadQueue</title>
<polygon fill="none" stroke="black" points="179.5,-430.3 179.5,-499.3 325.5,-499.3 325.5,-430.3 179.5,-430.3"/>
<text text-anchor="start" x="187.5" y="-484.1" font-family="Times New Roman,serif" font-size="14.00">DataJointUploadQueue</text>
<polyline fill="none" stroke="black" points="179.5,-476.3 325.5,-476.3 "/>
<text text-anchor="start" x="208.5" y="-461.1" font-family="Times New Roman,serif" font-size="14.00">table_name : str</text>
<polyline fill="none" stroke="black" points="179.5,-453.3 325.5,-453.3 "/>
<text text-anchor="start" x="250.5" y="-438.1" font-family="Times New Roman,serif" font-size="14.00"> </text>
</g>
<!-- np_jobs.queues.sqlite_isilon.datajoint_upload_queue.DataJointUploadQueue&#45;&gt;np_jobs.queues.sqlite_isilon.base.SqliteIsilonJobQueue -->
<g id="edge3" class="edge">
<title>np_jobs.queues.sqlite_isilon.datajoint_upload_queue.DataJointUploadQueue&#45;&gt;np_jobs.queues.sqlite_isilon.base.SqliteIsilonJobQueue</title>
<path fill="none" stroke="black" d="M268.07,-499.6C276.78,-518.5 288.55,-544.04 301.8,-572.8"/>
<polygon fill="none" stroke="black" points="298.79,-574.62 306.15,-582.24 305.14,-571.69 298.79,-574.62"/>
</g>
<!-- np_jobs.types.Job -->
<g id="node3" class="node">
<title>np_jobs.types.Job</title>
<polygon fill="none" stroke="black" points="833.5,-87.4 833.5,-246.4 903.5,-246.4 903.5,-87.4 833.5,-87.4"/>
<text text-anchor="start" x="858" y="-231.2" font-family="Times New Roman,serif" font-size="14.00">Job</text>
<polyline fill="none" stroke="black" points="833.5,-223.4 903.5,-223.4 "/>
<text text-anchor="start" x="841.5" y="-208.2" font-family="Times New Roman,serif" font-size="14.00">added</text>
<text text-anchor="start" x="841.5" y="-193.2" font-family="Times New Roman,serif" font-size="14.00">error</text>
<text text-anchor="start" x="841.5" y="-178.2" font-family="Times New Roman,serif" font-size="14.00">finished</text>
<text text-anchor="start" x="841.5" y="-163.2" font-family="Times New Roman,serif" font-size="14.00">hostname</text>
<text text-anchor="start" x="841.5" y="-148.2" font-family="Times New Roman,serif" font-size="14.00">priority</text>
<text text-anchor="start" x="841.5" y="-133.2" font-family="Times New Roman,serif" font-size="14.00">session</text>
<text text-anchor="start" x="841.5" y="-118.2" font-family="Times New Roman,serif" font-size="14.00">started</text>
<polyline fill="none" stroke="black" points="833.5,-110.4 903.5,-110.4 "/>
<text text-anchor="start" x="866.5" y="-95.2" font-family="Times New Roman,serif" font-size="14.00"> </text>
</g>
<!-- np_jobs.jobs.base.JobDataclass -->
<g id="node4" class="node">
<title>np_jobs.jobs.base.JobDataclass</title>
<polygon fill="none" stroke="black" points="671.5,-385.3 671.5,-544.3 847.5,-544.3 847.5,-385.3 671.5,-385.3"/>
<text text-anchor="start" x="722.5" y="-529.1" font-family="Times New Roman,serif" font-size="14.00">JobDataclass</text>
<polyline fill="none" stroke="black" points="671.5,-521.3 847.5,-521.3 "/>
<text text-anchor="start" x="679.5" y="-506.1" font-family="Times New Roman,serif" font-size="14.00">added : int | float</text>
<text text-anchor="start" x="679.5" y="-491.1" font-family="Times New Roman,serif" font-size="14.00">error : Optional[str]</text>
<text text-anchor="start" x="679.5" y="-476.1" font-family="Times New Roman,serif" font-size="14.00">finished : Optional[int | float]</text>
<text text-anchor="start" x="679.5" y="-461.1" font-family="Times New Roman,serif" font-size="14.00">hostname : Optional[str]</text>
<text text-anchor="start" x="679.5" y="-446.1" font-family="Times New Roman,serif" font-size="14.00">priority : int</text>
<text text-anchor="start" x="679.5" y="-431.1" font-family="Times New Roman,serif" font-size="14.00">session : str</text>
<text text-anchor="start" x="679.5" y="-416.1" font-family="Times New Roman,serif" font-size="14.00">started : Optional[int | float]</text>
<polyline fill="none" stroke="black" points="671.5,-408.3 847.5,-408.3 "/>
<text text-anchor="start" x="757.5" y="-393.1" font-family="Times New Roman,serif" font-size="14.00"> </text>
</g>
<!-- np_jobs.types.JobQueue -->
<g id="node5" class="node">
<title>np_jobs.types.JobQueue</title>
<polygon fill="none" stroke="black" points="922,-0.5 922,-333.3 1197,-333.3 1197,-0.5 922,-0.5"/>
<text text-anchor="start" x="1031" y="-318.1" font-family="Times New Roman,serif" font-size="14.00">JobQueue</text>
<polyline fill="none" stroke="black" points="922,-310.3 1197,-310.3 "/>
<polyline fill="none" stroke="black" points="922,-285.5 1197,-285.5 "/>
<text text-anchor="start" x="930" y="-271.3" font-family="Times New Roman,serif" font-style="italic" font-size="14.00">add_or_update</text>
<text text-anchor="start" x="1020" y="-271.3" font-family="Times New Roman,serif" font-size="14.00">(session_or_job: SessionArgs</text>
<polyline fill="none" stroke="black" points="922,-262.5 1197,-262.5 "/>
<text text-anchor="start" x="947" y="-248.3" font-family="Times New Roman,serif" font-size="14.00">Job): None</text>
<text text-anchor="start" x="947" y="-234.3" font-family="Times New Roman,serif" font-style="italic" font-size="14.00">is_started</text>
<text text-anchor="start" x="1003" y="-234.3" font-family="Times New Roman,serif" font-size="14.00">(session_or_job: SessionArgs</text>
<polyline fill="none" stroke="black" points="922,-226.5 1197,-226.5 "/>
<text text-anchor="start" x="1029" y="-212.3" font-family="Times New Roman,serif" font-size="14.00">Job): bool</text>
<text text-anchor="start" x="1029" y="-198.3" font-family="Times New Roman,serif" font-style="italic" font-size="14.00">next</text>
<text text-anchor="start" x="1053" y="-198.3" font-family="Times New Roman,serif" font-size="14.00">(): Job</text>
<polyline fill="none" stroke="black" points="922,-190.5 1197,-190.5 "/>
<text text-anchor="start" x="942.5" y="-176.3" font-family="Times New Roman,serif" font-size="14.00">None</text>
<text text-anchor="start" x="942.5" y="-162.3" font-family="Times New Roman,serif" font-style="italic" font-size="14.00">set_errored</text>
<text text-anchor="start" x="1007.5" y="-162.3" font-family="Times New Roman,serif" font-size="14.00">(session_or_job: SessionArgs</text>
<polyline fill="none" stroke="black" points="922,-154.5 1197,-154.5 "/>
<text text-anchor="start" x="1021.5" y="-139.3" font-family="Times New Roman,serif" font-size="14.00">Job, error: str</text>
<polyline fill="none" stroke="black" points="922,-131.5 1197,-131.5 "/>
<text text-anchor="start" x="941" y="-117.3" font-family="Times New Roman,serif" font-size="14.00">Exception): None</text>
<text text-anchor="start" x="941" y="-103.3" font-family="Times New Roman,serif" font-style="italic" font-size="14.00">set_finished</text>
<text text-anchor="start" x="1009" y="-103.3" font-family="Times New Roman,serif" font-size="14.00">(session_or_job: SessionArgs</text>
<polyline fill="none" stroke="black" points="922,-95.5 1197,-95.5 "/>
<text text-anchor="start" x="942.5" y="-81.3" font-family="Times New Roman,serif" font-size="14.00">Job): None</text>
<text text-anchor="start" x="942.5" y="-67.3" font-family="Times New Roman,serif" font-style="italic" font-size="14.00">set_queued</text>
<text text-anchor="start" x="1007.5" y="-67.3" font-family="Times New Roman,serif" font-size="14.00">(session_or_job: SessionArgs</text>
<polyline fill="none" stroke="black" points="922,-59.5 1197,-59.5 "/>
<text text-anchor="start" x="944" y="-45.3" font-family="Times New Roman,serif" font-size="14.00">Job): None</text>
<text text-anchor="start" x="944" y="-31.3" font-family="Times New Roman,serif" font-style="italic" font-size="14.00">set_started</text>
<text text-anchor="start" x="1006" y="-31.3" font-family="Times New Roman,serif" font-size="14.00">(session_or_job: SessionArgs</text>
<polyline fill="none" stroke="black" points="922,-23.5 1197,-23.5 "/>
<text text-anchor="start" x="1028.5" y="-8.3" font-family="Times New Roman,serif" font-size="14.00">Job): None</text>
</g>
<!-- np_jobs.jobs.base.JobTuple -->
<g id="node6" class="node">
<title>np_jobs.jobs.base.JobTuple</title>
<polygon fill="none" stroke="black" points="1215.5,-87.4 1215.5,-246.4 1391.5,-246.4 1391.5,-87.4 1215.5,-87.4"/>
<text text-anchor="start" x="1277" y="-231.2" font-family="Times New Roman,serif" font-size="14.00">JobTuple</text>
<polyline fill="none" stroke="black" points="1215.5,-223.4 1391.5,-223.4 "/>
<text text-anchor="start" x="1223.5" y="-208.2" font-family="Times New Roman,serif" font-size="14.00">added : int | float</text>
<text text-anchor="start" x="1223.5" y="-193.2" font-family="Times New Roman,serif" font-size="14.00">error : Optional[str]</text>
<text text-anchor="start" x="1223.5" y="-178.2" font-family="Times New Roman,serif" font-size="14.00">finished : Optional[int | float]</text>
<text text-anchor="start" x="1223.5" y="-163.2" font-family="Times New Roman,serif" font-size="14.00">hostname : Optional[str]</text>
<text text-anchor="start" x="1223.5" y="-148.2" font-family="Times New Roman,serif" font-size="14.00">priority : int</text>
<text text-anchor="start" x="1223.5" y="-133.2" font-family="Times New Roman,serif" font-size="14.00">session : str</text>
<text text-anchor="start" x="1223.5" y="-118.2" font-family="Times New Roman,serif" font-size="14.00">started : Optional[int | float]</text>
<polyline fill="none" stroke="black" points="1215.5,-110.4 1391.5,-110.4 "/>
<text text-anchor="start" x="1301.5" y="-95.2" font-family="Times New Roman,serif" font-size="14.00"> </text>
</g>
<!-- np_jobs.queues.sqlite_isilon.pipeline_npexp_upload_queue.PipelineNpexpUploadQueue -->
<g id="node7" class="node">
<title>np_jobs.queues.sqlite_isilon.pipeline_npexp_upload_queue.PipelineNpexpUploadQueue</title>
<polygon fill="none" stroke="black" points="344,-430.3 344,-499.3 519,-499.3 519,-430.3 344,-430.3"/>
<text text-anchor="start" x="352" y="-484.1" font-family="Times New Roman,serif" font-size="14.00">PipelineNpexpUploadQueue</text>
<polyline fill="none" stroke="black" points="344,-476.3 519,-476.3 "/>
<text text-anchor="start" x="387.5" y="-461.1" font-family="Times New Roman,serif" font-size="14.00">table_name : str</text>
<polyline fill="none" stroke="black" points="344,-453.3 519,-453.3 "/>
<text text-anchor="start" x="429.5" y="-438.1" font-family="Times New Roman,serif" font-size="14.00"> </text>
</g>
<!-- np_jobs.queues.sqlite_isilon.pipeline_npexp_upload_queue.PipelineNpexpUploadQueue&#45;&gt;np_jobs.queues.sqlite_isilon.base.SqliteIsilonJobQueue -->
<g id="edge4" class="edge">
<title>np_jobs.queues.sqlite_isilon.pipeline_npexp_upload_queue.PipelineNpexpUploadQueue&#45;&gt;np_jobs.queues.sqlite_isilon.base.SqliteIsilonJobQueue</title>
<path fill="none" stroke="black" d="M431.5,-499.6C431.5,-518.34 431.5,-543.6 431.5,-572.05"/>
<polygon fill="none" stroke="black" points="428,-572.24 431.5,-582.24 435,-572.24 428,-572.24"/>
</g>
<!-- np_jobs.queues.sqlite_isilon.pipeline_qc_queue.PipelineQCQueue -->
<g id="node8" class="node">
<title>np_jobs.queues.sqlite_isilon.pipeline_qc_queue.PipelineQCQueue</title>
<polygon fill="none" stroke="black" points="537.5,-430.3 537.5,-499.3 653.5,-499.3 653.5,-430.3 537.5,-430.3"/>
<text text-anchor="start" x="545.5" y="-484.1" font-family="Times New Roman,serif" font-size="14.00">PipelineQCQueue</text>
<polyline fill="none" stroke="black" points="537.5,-476.3 653.5,-476.3 "/>
<text text-anchor="start" x="551.5" y="-461.1" font-family="Times New Roman,serif" font-size="14.00">table_name : str</text>
<polyline fill="none" stroke="black" points="537.5,-453.3 653.5,-453.3 "/>
<text text-anchor="start" x="593.5" y="-438.1" font-family="Times New Roman,serif" font-size="14.00"> </text>
</g>
<!-- np_jobs.queues.sqlite_isilon.pipeline_qc_queue.PipelineQCQueue&#45;&gt;np_jobs.queues.sqlite_isilon.base.SqliteIsilonJobQueue -->
<g id="edge5" class="edge">
<title>np_jobs.queues.sqlite_isilon.pipeline_qc_queue.PipelineQCQueue&#45;&gt;np_jobs.queues.sqlite_isilon.base.SqliteIsilonJobQueue</title>
<path fill="none" stroke="black" d="M581.23,-499.6C573.25,-518.5 562.47,-544.04 550.33,-572.8"/>
<polygon fill="none" stroke="black" points="547.01,-571.67 546.35,-582.24 553.46,-574.39 547.01,-571.67"/>
</g>
<!-- np_jobs.queues.sqlite_isilon.pipeline_sorting_queue.PipelineSortingQueue -->
<g id="node9" class="node">
<title>np_jobs.queues.sqlite_isilon.pipeline_sorting_queue.PipelineSortingQueue</title>
<polygon fill="none" stroke="black" points="866,-415.3 866,-514.3 1021,-514.3 1021,-415.3 866,-415.3"/>
<text text-anchor="start" x="883" y="-499.1" font-family="Times New Roman,serif" font-size="14.00">PipelineSortingQueue</text>
<polyline fill="none" stroke="black" points="866,-491.3 1021,-491.3 "/>
<text text-anchor="start" x="874" y="-476.1" font-family="Times New Roman,serif" font-size="14.00">column_definitions : dict</text>
<text text-anchor="start" x="874" y="-461.1" font-family="Times New Roman,serif" font-size="14.00">job_type</text>
<text text-anchor="start" x="874" y="-446.1" font-family="Times New Roman,serif" font-size="14.00">table_name : str</text>
<polyline fill="none" stroke="black" points="866,-438.3 1021,-438.3 "/>
<text text-anchor="start" x="941.5" y="-423.1" font-family="Times New Roman,serif" font-size="14.00"> </text>
</g>
<!-- np_jobs.queues.sqlite_isilon.pipeline_sorting_queue.PipelineSortingQueue&#45;&gt;np_jobs.queues.sqlite_isilon.base.SqliteIsilonJobQueue -->
<g id="edge6" class="edge">
<title>np_jobs.queues.sqlite_isilon.pipeline_sorting_queue.PipelineSortingQueue&#45;&gt;np_jobs.queues.sqlite_isilon.base.SqliteIsilonJobQueue</title>
<path fill="none" stroke="black" d="M891.86,-514.36C880.42,-524.65 868.21,-535.27 856.5,-544.8 768.56,-616.4 665.89,-691.39 583.49,-749.63"/>
<polygon fill="none" stroke="black" points="581.22,-746.94 575.07,-755.56 585.26,-752.66 581.22,-746.94"/>
</g>
<!-- np_jobs.jobs.pipeline_sorting.SortingJob -->
<g id="node10" class="node">
<title>np_jobs.jobs.pipeline_sorting.SortingJob</title>
<polygon fill="none" stroke="black" points="735.5,-132.4 735.5,-201.4 815.5,-201.4 815.5,-132.4 735.5,-132.4"/>
<text text-anchor="start" x="745" y="-186.2" font-family="Times New Roman,serif" font-size="14.00">SortingJob</text>
<polyline fill="none" stroke="black" points="735.5,-178.4 815.5,-178.4 "/>
<text text-anchor="start" x="743.5" y="-163.2" font-family="Times New Roman,serif" font-size="14.00">probes : str</text>
<polyline fill="none" stroke="black" points="735.5,-155.4 815.5,-155.4 "/>
<text text-anchor="start" x="773.5" y="-140.2" font-family="Times New Roman,serif" font-size="14.00"> </text>
</g>
<!-- np_jobs.jobs.pipeline_sorting.SortingJob&#45;&gt;np_jobs.jobs.base.JobDataclass -->
<g id="edge1" class="edge">
<title>np_jobs.jobs.pipeline_sorting.SortingJob&#45;&gt;np_jobs.jobs.base.JobDataclass</title>
<path fill="none" stroke="black" d="M773.68,-201.56C771.41,-243.51 767.45,-316.82 764.29,-375.28"/>
<polygon fill="none" stroke="black" points="760.79,-375.09 763.75,-385.27 767.78,-375.47 760.79,-375.09"/>
</g>
<!-- np_jobs.jobs.pipeline_sorting.SortingJob&#45;&gt;np_jobs.queues.sqlite_isilon.pipeline_sorting_queue.PipelineSortingQueue -->
<g id="edge7" class="edge">
<title>np_jobs.jobs.pipeline_sorting.SortingJob&#45;&gt;np_jobs.queues.sqlite_isilon.pipeline_sorting_queue.PipelineSortingQueue</title>
<path fill="none" stroke="black" d="M780.79,-201.44C787.3,-236.26 800.57,-291.44 824.5,-333.8 839.25,-359.91 860.14,-385.08 880.32,-406.2"/>
<polygon fill="black" stroke="black" points="880.52,-406.41 887.57,-407.91 888.9,-415 881.85,-413.5 880.52,-406.41"/>
<text text-anchor="middle" x="870.5" y="-355.6" font-family="Times New Roman,serif" font-size="14.00" fill="green">job_type</text>
</g>
</g>
</svg>
