<?xml version="1.0" encoding="UTF-8" standalone="no"?>
<!DOCTYPE svg PUBLIC "-//W3C//DTD SVG 1.1//EN"
 "http://www.w3.org/Graphics/SVG/1.1/DTD/svg11.dtd">
<!-- Generated by graphviz version 3.0.0 (20220226.1711)
 -->
<!-- Title: packages Pages: 1 -->
<svg width="1909pt" height="476pt"
 viewBox="0.00 0.00 1909.00 476.00" xmlns="http://www.w3.org/2000/svg" xmlns:xlink="http://www.w3.org/1999/xlink">
<g id="graph0" class="graph" transform="scale(1 1) rotate(0) translate(4 472)">
<title>packages</title>
<polygon fill="white" stroke="transparent" points="-4,4 -4,-472 1905,-472 1905,4 -4,4"/>
<!-- np_jobs -->
<g id="node1" class="node">
<title>np_jobs</title>
<polygon fill="none" stroke="black" points="618,-36 556,-36 556,0 618,0 618,-36"/>
<text text-anchor="middle" x="587" y="-14.3" font-family="Times New Roman,serif" font-size="14.00">np_jobs</text>
</g>
<!-- np_jobs.jobs -->
<g id="node2" class="node">
<title>np_jobs.jobs</title>
<polygon fill="none" stroke="black" points="136,-324 46,-324 46,-288 136,-288 136,-324"/>
<text text-anchor="middle" x="91" y="-302.3" font-family="Times New Roman,serif" font-size="14.00">np_jobs.jobs</text>
</g>
<!-- np_jobs&#45;&gt;np_jobs.jobs -->
<g id="edge1" class="edge">
<title>np_jobs&#45;&gt;np_jobs.jobs</title>
<path fill="none" stroke="black" d="M555.74,-20.64C459.39,-25.96 171.66,-44.07 141,-72 82.71,-125.1 83.5,-228.28 87.71,-277.54"/>
<polygon fill="black" stroke="black" points="88.7,-287.74 83.25,-278.22 88.21,-282.77 87.73,-277.79 87.73,-277.79 87.73,-277.79 88.21,-282.77 92.21,-277.36 88.7,-287.74 88.7,-287.74"/>
</g>
<!-- np_jobs.queues -->
<g id="node5" class="node">
<title>np_jobs.queues</title>
<polygon fill="none" stroke="black" points="855.5,-108 750.5,-108 750.5,-72 855.5,-72 855.5,-108"/>
<text text-anchor="middle" x="803" y="-86.3" font-family="Times New Roman,serif" font-size="14.00">np_jobs.queues</text>
</g>
<!-- np_jobs&#45;&gt;np_jobs.queues -->
<g id="edge2" class="edge">
<title>np_jobs&#45;&gt;np_jobs.queues</title>
<path fill="none" stroke="black" d="M618.21,-32.32C621.5,-33.61 624.81,-34.86 628,-36 665,-49.24 707.13,-62.06 740.78,-71.78"/>
<polygon fill="black" stroke="black" points="750.49,-74.57 739.63,-76.13 745.68,-73.19 740.88,-71.81 740.88,-71.81 740.88,-71.81 745.68,-73.19 742.12,-67.48 750.49,-74.57 750.49,-74.57"/>
</g>
<!-- np_jobs.types -->
<g id="node14" class="node">
<title>np_jobs.types</title>
<polygon fill="none" stroke="black" points="1067,-468 971,-468 971,-432 1067,-432 1067,-468"/>
<text text-anchor="middle" x="1019" y="-446.3" font-family="Times New Roman,serif" font-size="14.00">np_jobs.types</text>
</g>
<!-- np_jobs&#45;&gt;np_jobs.types -->
<g id="edge3" class="edge">
<title>np_jobs&#45;&gt;np_jobs.types</title>
<path fill="none" stroke="black" d="M618.02,-32.97C621.34,-34.13 624.71,-35.18 628,-36 765.86,-70.54 1901,-18.88 1901,-161 1901,-161 1901,-161 1901,-307 1901,-390.71 1273.75,-434.22 1077.18,-445.8"/>
<polygon fill="black" stroke="black" points="1067.05,-446.39 1076.77,-441.32 1072.04,-446.1 1077.03,-445.81 1077.03,-445.81 1077.03,-445.81 1072.04,-446.1 1077.29,-450.3 1067.05,-446.39 1067.05,-446.39"/>
</g>
<!-- np_jobs.utils -->
<g id="node15" class="node">
<title>np_jobs.utils</title>
<polygon fill="none" stroke="black" points="659.5,-396 570.5,-396 570.5,-360 659.5,-360 659.5,-396"/>
<text text-anchor="middle" x="615" y="-374.3" font-family="Times New Roman,serif" font-size="14.00">np_jobs.utils</text>
</g>
<!-- np_jobs&#45;&gt;np_jobs.utils -->
<g id="edge4" class="edge">
<title>np_jobs&#45;&gt;np_jobs.utils</title>
<path fill="none" stroke="black" d="M555.64,-23.36C442.22,-40.38 65.65,-108.67 174,-252 220.84,-313.96 452.66,-354.11 560.12,-369.68"/>
<polygon fill="black" stroke="black" points="570.12,-371.11 559.59,-374.15 565.17,-370.4 560.22,-369.7 560.22,-369.7 560.22,-369.7 565.17,-370.4 560.86,-365.24 570.12,-371.11 570.12,-371.11"/>
</g>
<!-- np_jobs.jobs.base -->
<g id="node3" class="node">
<title>np_jobs.jobs.base</title>
<polygon fill="none" stroke="black" points="269.5,-468 150.5,-468 150.5,-432 269.5,-432 269.5,-468"/>
<text text-anchor="middle" x="210" y="-446.3" font-family="Times New Roman,serif" font-size="14.00">np_jobs.jobs.base</text>
</g>
<!-- np_jobs.jobs&#45;&gt;np_jobs.jobs.base -->
<g id="edge5" class="edge">
<title>np_jobs.jobs&#45;&gt;np_jobs.jobs.base</title>
<path fill="none" stroke="black" d="M136.2,-321.11C155.82,-329.44 177.38,-341.97 191,-360 204.36,-377.68 208.78,-402.7 210.05,-421.71"/>
<polygon fill="black" stroke="black" points="210.47,-431.84 205.56,-422.04 210.26,-426.85 210.06,-421.85 210.06,-421.85 210.06,-421.85 210.26,-426.85 214.55,-421.66 210.47,-431.84 210.47,-431.84"/>
</g>
<!-- np_jobs.jobs.pipeline_sorting -->
<g id="node4" class="node">
<title>np_jobs.jobs.pipeline_sorting</title>
<polygon fill="none" stroke="black" points="182,-396 0,-396 0,-360 182,-360 182,-396"/>
<text text-anchor="middle" x="91" y="-374.3" font-family="Times New Roman,serif" font-size="14.00">np_jobs.jobs.pipeline_sorting</text>
</g>
<!-- np_jobs.jobs&#45;&gt;np_jobs.jobs.pipeline_sorting -->
<g id="edge6" class="edge">
<title>np_jobs.jobs&#45;&gt;np_jobs.jobs.pipeline_sorting</title>
<path fill="none" stroke="black" d="M91,-324.3C91,-332.02 91,-341.29 91,-349.89"/>
<polygon fill="black" stroke="black" points="91,-359.9 86.5,-349.9 91,-354.9 91,-349.9 91,-349.9 91,-349.9 91,-354.9 95.5,-349.9 91,-359.9 91,-359.9"/>
</g>
<!-- np_jobs.jobs.pipeline_sorting&#45;&gt;np_jobs.jobs.base -->
<g id="edge7" class="edge">
<title>np_jobs.jobs.pipeline_sorting&#45;&gt;np_jobs.jobs.base</title>
<path fill="none" stroke="black" d="M120.11,-396.12C135.67,-405.28 155.02,-416.66 171.78,-426.52"/>
<polygon fill="black" stroke="black" points="180.78,-431.81 169.88,-430.62 176.47,-429.28 172.16,-426.74 172.16,-426.74 172.16,-426.74 176.47,-429.28 174.44,-422.86 180.78,-431.81 180.78,-431.81"/>
</g>
<!-- np_jobs.queues.sqlite_isilon -->
<g id="node6" class="node">
<title>np_jobs.queues.sqlite_isilon</title>
<polygon fill="none" stroke="black" points="1106.5,-180 931.5,-180 931.5,-144 1106.5,-144 1106.5,-180"/>
<text text-anchor="middle" x="1019" y="-158.3" font-family="Times New Roman,serif" font-size="14.00">np_jobs.queues.sqlite_isilon</text>
</g>
<!-- np_jobs.queues&#45;&gt;np_jobs.queues.sqlite_isilon -->
<g id="edge8" class="edge">
<title>np_jobs.queues&#45;&gt;np_jobs.queues.sqlite_isilon</title>
<path fill="none" stroke="black" d="M855.56,-108.03C886.01,-117.9 924.51,-130.38 956.5,-140.75"/>
<polygon fill="black" stroke="black" points="966.2,-143.89 955.3,-145.09 961.44,-142.35 956.69,-140.81 956.69,-140.81 956.69,-140.81 961.44,-142.35 958.08,-136.53 966.2,-143.89 966.2,-143.89"/>
</g>
<!-- np_jobs.queues.sqlite_isilon.base -->
<g id="node7" class="node">
<title>np_jobs.queues.sqlite_isilon.base</title>
<polygon fill="none" stroke="black" points="1121,-324 917,-324 917,-288 1121,-288 1121,-324"/>
<text text-anchor="middle" x="1019" y="-302.3" font-family="Times New Roman,serif" font-size="14.00">np_jobs.queues.sqlite_isilon.base</text>
</g>
<!-- np_jobs.queues.sqlite_isilon&#45;&gt;np_jobs.queues.sqlite_isilon.base -->
<g id="edge9" class="edge">
<title>np_jobs.queues.sqlite_isilon&#45;&gt;np_jobs.queues.sqlite_isilon.base</title>
<path fill="none" stroke="black" d="M1106.52,-174.46C1131.04,-182.16 1155.06,-194.92 1170,-216 1179.25,-229.05 1179.25,-238.95 1170,-252 1159.99,-266.12 1145.92,-276.5 1130.35,-284.13"/>
<polygon fill="black" stroke="black" points="1121.03,-288.32 1128.31,-280.12 1125.59,-286.27 1130.15,-284.22 1130.15,-284.22 1130.15,-284.22 1125.59,-286.27 1131.99,-288.33 1121.03,-288.32 1121.03,-288.32"/>
</g>
<!-- np_jobs.queues.sqlite_isilon.codeocean_upload_queue -->
<g id="node8" class="node">
<title>np_jobs.queues.sqlite_isilon.codeocean_upload_queue</title>
<polygon fill="none" stroke="black" points="1543,-252 1217,-252 1217,-216 1543,-216 1543,-252"/>
<text text-anchor="middle" x="1380" y="-230.3" font-family="Times New Roman,serif" font-size="14.00">np_jobs.queues.sqlite_isilon.codeocean_upload_queue</text>
</g>
<!-- np_jobs.queues.sqlite_isilon&#45;&gt;np_jobs.queues.sqlite_isilon.codeocean_upload_queue -->
<g id="edge10" class="edge">
<title>np_jobs.queues.sqlite_isilon&#45;&gt;np_jobs.queues.sqlite_isilon.codeocean_upload_queue</title>
<path fill="none" stroke="black" d="M1106.85,-180.03C1159.8,-190.3 1227.34,-203.4 1282.02,-214"/>
<polygon fill="black" stroke="black" points="1292.07,-215.95 1281.4,-218.46 1287.16,-215 1282.25,-214.05 1282.25,-214.05 1282.25,-214.05 1287.16,-215 1283.11,-209.63 1292.07,-215.95 1292.07,-215.95"/>
</g>
<!-- np_jobs.queues.sqlite_isilon.datajoint_upload_queue -->
<g id="node9" class="node">
<title>np_jobs.queues.sqlite_isilon.datajoint_upload_queue</title>
<polygon fill="none" stroke="black" points="1873,-252 1561,-252 1561,-216 1873,-216 1873,-252"/>
<text text-anchor="middle" x="1717" y="-230.3" font-family="Times New Roman,serif" font-size="14.00">np_jobs.queues.sqlite_isilon.datajoint_upload_queue</text>
</g>
<!-- np_jobs.queues.sqlite_isilon&#45;&gt;np_jobs.queues.sqlite_isilon.datajoint_upload_queue -->
<g id="edge11" class="edge">
<title>np_jobs.queues.sqlite_isilon&#45;&gt;np_jobs.queues.sqlite_isilon.datajoint_upload_queue</title>
<path fill="none" stroke="black" d="M1106.72,-171.63C1210.2,-181.82 1387.72,-199.39 1550.47,-215.85"/>
<polygon fill="black" stroke="black" points="1560.67,-216.88 1550.27,-220.35 1555.7,-216.38 1550.72,-215.87 1550.72,-215.87 1550.72,-215.87 1555.7,-216.38 1551.18,-211.4 1560.67,-216.88 1560.67,-216.88"/>
</g>
<!-- np_jobs.queues.sqlite_isilon.pipeline_npexp_upload_queue -->
<g id="node11" class="node">
<title>np_jobs.queues.sqlite_isilon.pipeline_npexp_upload_queue</title>
<polygon fill="none" stroke="black" points="859,-252 509,-252 509,-216 859,-216 859,-252"/>
<text text-anchor="middle" x="684" y="-230.3" font-family="Times New Roman,serif" font-size="14.00">np_jobs.queues.sqlite_isilon.pipeline_npexp_upload_queue</text>
</g>
<!-- np_jobs.queues.sqlite_isilon&#45;&gt;np_jobs.queues.sqlite_isilon.pipeline_npexp_upload_queue -->
<g id="edge12" class="edge">
<title>np_jobs.queues.sqlite_isilon&#45;&gt;np_jobs.queues.sqlite_isilon.pipeline_npexp_upload_queue</title>
<path fill="none" stroke="black" d="M937.48,-180.03C888.55,-190.26 826.18,-203.29 775.56,-213.87"/>
<polygon fill="black" stroke="black" points="765.6,-215.95 774.46,-209.5 770.49,-214.93 775.39,-213.9 775.39,-213.9 775.39,-213.9 770.49,-214.93 776.31,-218.31 765.6,-215.95 765.6,-215.95"/>
</g>
<!-- np_jobs.queues.sqlite_isilon.pipeline_qc_queue -->
<g id="node12" class="node">
<title>np_jobs.queues.sqlite_isilon.pipeline_qc_queue</title>
<polygon fill="none" stroke="black" points="1161,-252 877,-252 877,-216 1161,-216 1161,-252"/>
<text text-anchor="middle" x="1019" y="-230.3" font-family="Times New Roman,serif" font-size="14.00">np_jobs.queues.sqlite_isilon.pipeline_qc_queue</text>
</g>
<!-- np_jobs.queues.sqlite_isilon&#45;&gt;np_jobs.queues.sqlite_isilon.pipeline_qc_queue -->
<g id="edge13" class="edge">
<title>np_jobs.queues.sqlite_isilon&#45;&gt;np_jobs.queues.sqlite_isilon.pipeline_qc_queue</title>
<path fill="none" stroke="black" d="M1019,-180.3C1019,-188.02 1019,-197.29 1019,-205.89"/>
<polygon fill="black" stroke="black" points="1019,-215.9 1014.5,-205.9 1019,-210.9 1019,-205.9 1019,-205.9 1019,-205.9 1019,-210.9 1023.5,-205.9 1019,-215.9 1019,-215.9"/>
</g>
<!-- np_jobs.queues.sqlite_isilon.pipeline_sorting_queue -->
<g id="node13" class="node">
<title>np_jobs.queues.sqlite_isilon.pipeline_sorting_queue</title>
<polygon fill="none" stroke="black" points="491,-252 183,-252 183,-216 491,-216 491,-252"/>
<text text-anchor="middle" x="337" y="-230.3" font-family="Times New Roman,serif" font-size="14.00">np_jobs.queues.sqlite_isilon.pipeline_sorting_queue</text>
</g>
<!-- np_jobs.queues.sqlite_isilon&#45;&gt;np_jobs.queues.sqlite_isilon.pipeline_sorting_queue -->
<g id="edge14" class="edge">
<title>np_jobs.queues.sqlite_isilon&#45;&gt;np_jobs.queues.sqlite_isilon.pipeline_sorting_queue</title>
<path fill="none" stroke="black" d="M931.3,-171.9C830.32,-182.16 659.13,-199.59 501.37,-215.86"/>
<polygon fill="black" stroke="black" points="491,-216.93 500.49,-211.43 495.97,-216.42 500.95,-215.9 500.95,-215.9 500.95,-215.9 495.97,-216.42 501.41,-220.38 491,-216.93 491,-216.93"/>
</g>
<!-- np_jobs.queues.sqlite_isilon.base&#45;&gt;np_jobs.types -->
<g id="edge15" class="edge">
<title>np_jobs.queues.sqlite_isilon.base&#45;&gt;np_jobs.types</title>
<path fill="none" stroke="black" d="M1019,-324.13C1019,-348.33 1019,-392.79 1019,-421.61"/>
<polygon fill="black" stroke="black" points="1019,-431.81 1014.5,-421.81 1019,-426.81 1019,-421.81 1019,-421.81 1019,-421.81 1019,-426.81 1023.5,-421.81 1019,-431.81 1019,-431.81"/>
</g>
<!-- np_jobs.queues.sqlite_isilon.base&#45;&gt;np_jobs.utils -->
<g id="edge16" class="edge">
<title>np_jobs.queues.sqlite_isilon.base&#45;&gt;np_jobs.utils</title>
<path fill="none" stroke="black" d="M920.69,-324.03C841.76,-337.71 733.86,-356.41 669.61,-367.54"/>
<polygon fill="black" stroke="black" points="659.68,-369.26 668.77,-363.12 664.61,-368.4 669.54,-367.55 669.54,-367.55 669.54,-367.55 664.61,-368.4 670.31,-371.98 659.68,-369.26 659.68,-369.26"/>
</g>
<!-- np_jobs.queues.sqlite_isilon.codeocean_upload_queue&#45;&gt;np_jobs.queues.sqlite_isilon.base -->
<g id="edge17" class="edge">
<title>np_jobs.queues.sqlite_isilon.codeocean_upload_queue&#45;&gt;np_jobs.queues.sqlite_isilon.base</title>
<path fill="none" stroke="black" d="M1292.15,-252.03C1239.2,-262.3 1171.66,-275.4 1116.98,-286"/>
<polygon fill="black" stroke="black" points="1106.93,-287.95 1115.89,-281.63 1111.84,-287 1116.75,-286.05 1116.75,-286.05 1116.75,-286.05 1111.84,-287 1117.6,-290.46 1106.93,-287.95 1106.93,-287.95"/>
</g>
<!-- np_jobs.queues.sqlite_isilon.datajoint_upload_queue&#45;&gt;np_jobs.queues.sqlite_isilon.base -->
<g id="edge18" class="edge">
<title>np_jobs.queues.sqlite_isilon.datajoint_upload_queue&#45;&gt;np_jobs.queues.sqlite_isilon.base</title>
<path fill="none" stroke="black" d="M1560.67,-251.12C1557.76,-251.42 1554.87,-251.71 1552,-252 1406.8,-266.7 1239.32,-283.29 1131.44,-293.94"/>
<polygon fill="black" stroke="black" points="1121.19,-294.95 1130.7,-289.49 1126.17,-294.46 1131.14,-293.97 1131.14,-293.97 1131.14,-293.97 1126.17,-294.46 1131.58,-298.44 1121.19,-294.95 1121.19,-294.95"/>
</g>
<!-- np_jobs.queues.sqlite_isilon.dynamicrouting_behavior_session_mtrain_upload -->
<g id="node10" class="node">
<title>np_jobs.queues.sqlite_isilon.dynamicrouting_behavior_session_mtrain_upload</title>
<polygon fill="none" stroke="black" points="1093.5,-36 636.5,-36 636.5,0 1093.5,0 1093.5,-36"/>
<text text-anchor="middle" x="865" y="-14.3" font-family="Times New Roman,serif" font-size="14.00">np_jobs.queues.sqlite_isilon.dynamicrouting_behavior_session_mtrain_upload</text>
</g>
<!-- np_jobs.queues.sqlite_isilon.pipeline_npexp_upload_queue&#45;&gt;np_jobs.queues.sqlite_isilon.base -->
<g id="edge19" class="edge">
<title>np_jobs.queues.sqlite_isilon.pipeline_npexp_upload_queue&#45;&gt;np_jobs.queues.sqlite_isilon.base</title>
<path fill="none" stroke="black" d="M765.52,-252.03C814.45,-262.26 876.82,-275.29 927.44,-285.87"/>
<polygon fill="black" stroke="black" points="937.4,-287.95 926.69,-290.31 932.51,-286.93 927.61,-285.9 927.61,-285.9 927.61,-285.9 932.51,-286.93 928.54,-281.5 937.4,-287.95 937.4,-287.95"/>
</g>
<!-- np_jobs.queues.sqlite_isilon.pipeline_qc_queue&#45;&gt;np_jobs.queues.sqlite_isilon.base -->
<g id="edge20" class="edge">
<title>np_jobs.queues.sqlite_isilon.pipeline_qc_queue&#45;&gt;np_jobs.queues.sqlite_isilon.base</title>
<path fill="none" stroke="black" d="M1019,-252.3C1019,-260.02 1019,-269.29 1019,-277.89"/>
<polygon fill="black" stroke="black" points="1019,-287.9 1014.5,-277.9 1019,-282.9 1019,-277.9 1019,-277.9 1019,-277.9 1019,-282.9 1023.5,-277.9 1019,-287.9 1019,-287.9"/>
</g>
<!-- np_jobs.queues.sqlite_isilon.pipeline_sorting_queue&#45;&gt;np_jobs.jobs -->
<g id="edge21" class="edge">
<title>np_jobs.queues.sqlite_isilon.pipeline_sorting_queue&#45;&gt;np_jobs.jobs</title>
<path fill="none" stroke="black" d="M277.14,-252.03C237.19,-263.4 185.05,-278.24 146.12,-289.32"/>
<polygon fill="black" stroke="black" points="136.01,-292.19 144.4,-285.13 140.82,-290.82 145.63,-289.45 145.63,-289.45 145.63,-289.45 140.82,-290.82 146.86,-293.78 136.01,-292.19 136.01,-292.19"/>
</g>
<!-- np_jobs.queues.sqlite_isilon.pipeline_sorting_queue&#45;&gt;np_jobs.queues.sqlite_isilon.base -->
<g id="edge22" class="edge">
<title>np_jobs.queues.sqlite_isilon.pipeline_sorting_queue&#45;&gt;np_jobs.queues.sqlite_isilon.base</title>
<path fill="none" stroke="black" d="M491,-251.07C494.03,-251.38 497.03,-251.69 500,-252 640.08,-266.46 801.46,-282.9 906.58,-293.59"/>
<polygon fill="black" stroke="black" points="916.58,-294.61 906.18,-298.07 911.6,-294.1 906.63,-293.6 906.63,-293.6 906.63,-293.6 911.6,-294.1 907.09,-289.12 916.58,-294.61 916.58,-294.61"/>
</g>
<!-- np_jobs.utils&#45;&gt;np_jobs.jobs.base -->
<g id="edge23" class="edge">
<title>np_jobs.utils&#45;&gt;np_jobs.jobs.base</title>
<path fill="none" stroke="black" d="M570.5,-386.69C500.2,-398.84 362.91,-422.57 279.53,-436.98"/>
<polygon fill="black" stroke="black" points="269.63,-438.69 278.72,-432.56 274.56,-437.84 279.49,-436.99 279.49,-436.99 279.49,-436.99 274.56,-437.84 280.25,-441.42 269.63,-438.69 269.63,-438.69"/>
</g>
<!-- np_jobs.utils&#45;&gt;np_jobs.types -->
<g id="edge24" class="edge">
<title>np_jobs.utils&#45;&gt;np_jobs.types</title>
<path fill="none" stroke="black" d="M659.78,-386.76C733.27,-399.49 879.4,-424.81 960.81,-438.92"/>
<polygon fill="black" stroke="black" points="970.89,-440.66 960.27,-443.39 965.96,-439.81 961.04,-438.96 961.04,-438.96 961.04,-438.96 965.96,-439.81 961.81,-434.52 970.89,-440.66 970.89,-440.66"/>
</g>
</g>
</svg>
